<mxfile host="app.diagrams.net" agent="Mozilla/5.0 (X11; Linux x86_64) AppleWebKit/537.36 (KHTML, like Gecko) Chrome/130.0.0.0 Safari/537.36" version="24.8.3">
  <diagram name="Page-1" id="Fr1sMG6X3ZSavMqRq0PU">
    <mxGraphModel dx="1818" dy="1095" grid="1" gridSize="10" guides="1" tooltips="1" connect="1" arrows="1" fold="1" page="1" pageScale="1" pageWidth="850" pageHeight="1100" math="0" shadow="0">
      <root>
        <mxCell id="0" />
        <mxCell id="1" parent="0" />
        <mxCell id="BC059xfo4H1Qpgpk-Aju-14" style="edgeStyle=orthogonalEdgeStyle;rounded=0;orthogonalLoop=1;jettySize=auto;html=1;exitX=0.5;exitY=1;exitDx=0;exitDy=0;entryX=0.5;entryY=0;entryDx=0;entryDy=0;" edge="1" parent="1" source="BC059xfo4H1Qpgpk-Aju-1" target="BC059xfo4H1Qpgpk-Aju-12">
          <mxGeometry relative="1" as="geometry" />
        </mxCell>
        <mxCell id="BC059xfo4H1Qpgpk-Aju-1" value="App Startup" style="rounded=1;whiteSpace=wrap;html=1;" vertex="1" parent="1">
          <mxGeometry x="320" y="330" width="120" height="60" as="geometry" />
        </mxCell>
        <mxCell id="BC059xfo4H1Qpgpk-Aju-17" style="edgeStyle=orthogonalEdgeStyle;rounded=0;orthogonalLoop=1;jettySize=auto;html=1;exitX=0;exitY=0.5;exitDx=0;exitDy=0;entryX=1;entryY=0.5;entryDx=0;entryDy=0;" edge="1" parent="1" source="BC059xfo4H1Qpgpk-Aju-2" target="BC059xfo4H1Qpgpk-Aju-16">
          <mxGeometry relative="1" as="geometry" />
        </mxCell>
        <mxCell id="BC059xfo4H1Qpgpk-Aju-2" value="Container" style="rounded=1;whiteSpace=wrap;html=1;" vertex="1" parent="1">
          <mxGeometry x="320" y="540" width="120" height="60" as="geometry" />
        </mxCell>
        <mxCell id="BC059xfo4H1Qpgpk-Aju-43" style="edgeStyle=orthogonalEdgeStyle;rounded=0;orthogonalLoop=1;jettySize=auto;html=1;exitX=0;exitY=0.5;exitDx=0;exitDy=0;entryX=0;entryY=0.5;entryDx=0;entryDy=0;" edge="1" parent="1" source="BC059xfo4H1Qpgpk-Aju-3" target="BC059xfo4H1Qpgpk-Aju-4">
          <mxGeometry relative="1" as="geometry" />
        </mxCell>
        <mxCell id="BC059xfo4H1Qpgpk-Aju-3" value="Handler" style="rounded=1;whiteSpace=wrap;html=1;" vertex="1" parent="1">
          <mxGeometry x="140" y="670" width="120" height="60" as="geometry" />
        </mxCell>
        <mxCell id="BC059xfo4H1Qpgpk-Aju-44" style="edgeStyle=orthogonalEdgeStyle;rounded=0;orthogonalLoop=1;jettySize=auto;html=1;exitX=0;exitY=0.5;exitDx=0;exitDy=0;entryX=0;entryY=0.5;entryDx=0;entryDy=0;" edge="1" parent="1" source="BC059xfo4H1Qpgpk-Aju-4" target="BC059xfo4H1Qpgpk-Aju-3">
          <mxGeometry relative="1" as="geometry" />
        </mxCell>
        <mxCell id="BC059xfo4H1Qpgpk-Aju-46" style="edgeStyle=orthogonalEdgeStyle;rounded=0;orthogonalLoop=1;jettySize=auto;html=1;exitX=0;exitY=0.5;exitDx=0;exitDy=0;entryX=0;entryY=0.5;entryDx=0;entryDy=0;" edge="1" parent="1" source="BC059xfo4H1Qpgpk-Aju-4" target="BC059xfo4H1Qpgpk-Aju-5">
          <mxGeometry relative="1" as="geometry" />
        </mxCell>
        <mxCell id="BC059xfo4H1Qpgpk-Aju-4" value="Service" style="rounded=1;whiteSpace=wrap;html=1;" vertex="1" parent="1">
          <mxGeometry x="140" y="760" width="120" height="60" as="geometry" />
        </mxCell>
        <mxCell id="BC059xfo4H1Qpgpk-Aju-45" style="edgeStyle=orthogonalEdgeStyle;rounded=0;orthogonalLoop=1;jettySize=auto;html=1;exitX=0;exitY=0.5;exitDx=0;exitDy=0;entryX=0;entryY=0.5;entryDx=0;entryDy=0;" edge="1" parent="1" source="BC059xfo4H1Qpgpk-Aju-5" target="BC059xfo4H1Qpgpk-Aju-4">
          <mxGeometry relative="1" as="geometry" />
        </mxCell>
        <mxCell id="BC059xfo4H1Qpgpk-Aju-5" value="Repository" style="rounded=1;whiteSpace=wrap;html=1;" vertex="1" parent="1">
          <mxGeometry x="140" y="850" width="120" height="60" as="geometry" />
        </mxCell>
        <mxCell id="BC059xfo4H1Qpgpk-Aju-6" value="&lt;h1 style=&quot;margin-top: 0px;&quot;&gt;Container&lt;/h1&gt;&lt;p&gt;container as a store of context, configuration and rules of the running application.&lt;/p&gt;&lt;p&gt;&lt;span style=&quot;background-color: initial;&quot;&gt;container is also updated per request.&lt;/span&gt;.&lt;/p&gt;" style="text;html=1;whiteSpace=wrap;overflow=hidden;rounded=0;" vertex="1" parent="1">
          <mxGeometry x="500" y="410" width="240" height="120" as="geometry" />
        </mxCell>
        <mxCell id="BC059xfo4H1Qpgpk-Aju-9" style="edgeStyle=orthogonalEdgeStyle;rounded=0;orthogonalLoop=1;jettySize=auto;html=1;entryX=0.5;entryY=0;entryDx=0;entryDy=0;" edge="1" parent="1" source="BC059xfo4H1Qpgpk-Aju-8" target="BC059xfo4H1Qpgpk-Aju-1">
          <mxGeometry relative="1" as="geometry" />
        </mxCell>
        <mxCell id="BC059xfo4H1Qpgpk-Aju-8" value="Actor" style="shape=umlActor;verticalLabelPosition=bottom;verticalAlign=top;html=1;outlineConnect=0;" vertex="1" parent="1">
          <mxGeometry x="365" y="140" width="30" height="60" as="geometry" />
        </mxCell>
        <mxCell id="BC059xfo4H1Qpgpk-Aju-15" style="edgeStyle=orthogonalEdgeStyle;rounded=0;orthogonalLoop=1;jettySize=auto;html=1;exitX=0.5;exitY=1;exitDx=0;exitDy=0;entryX=0.5;entryY=0;entryDx=0;entryDy=0;" edge="1" parent="1" source="BC059xfo4H1Qpgpk-Aju-12" target="BC059xfo4H1Qpgpk-Aju-2">
          <mxGeometry relative="1" as="geometry" />
        </mxCell>
        <mxCell id="BC059xfo4H1Qpgpk-Aju-12" value="New Instance" style="text;html=1;align=center;verticalAlign=middle;whiteSpace=wrap;rounded=0;" vertex="1" parent="1">
          <mxGeometry x="340" y="450" width="80" height="30" as="geometry" />
        </mxCell>
        <mxCell id="BC059xfo4H1Qpgpk-Aju-18" style="edgeStyle=orthogonalEdgeStyle;rounded=0;orthogonalLoop=1;jettySize=auto;html=1;exitX=1;exitY=0.5;exitDx=0;exitDy=0;entryX=0;entryY=0.5;entryDx=0;entryDy=0;" edge="1" parent="1" source="BC059xfo4H1Qpgpk-Aju-16" target="BC059xfo4H1Qpgpk-Aju-2">
          <mxGeometry relative="1" as="geometry" />
        </mxCell>
        <mxCell id="BC059xfo4H1Qpgpk-Aju-16" value="Middleware&lt;div&gt;(Generate Context)&lt;/div&gt;" style="rounded=1;whiteSpace=wrap;html=1;" vertex="1" parent="1">
          <mxGeometry x="140" y="540" width="120" height="60" as="geometry" />
        </mxCell>
        <mxCell id="BC059xfo4H1Qpgpk-Aju-23" value="" style="endArrow=classic;html=1;rounded=0;entryX=0.5;entryY=1;entryDx=0;entryDy=0;" edge="1" parent="1" target="BC059xfo4H1Qpgpk-Aju-2">
          <mxGeometry width="50" height="50" relative="1" as="geometry">
            <mxPoint x="380" y="880" as="sourcePoint" />
            <mxPoint x="260" y="680" as="targetPoint" />
          </mxGeometry>
        </mxCell>
        <mxCell id="BC059xfo4H1Qpgpk-Aju-24" value="" style="endArrow=classic;html=1;rounded=0;entryX=1;entryY=0.5;entryDx=0;entryDy=0;" edge="1" parent="1" target="BC059xfo4H1Qpgpk-Aju-3">
          <mxGeometry width="50" height="50" relative="1" as="geometry">
            <mxPoint x="380" y="700" as="sourcePoint" />
            <mxPoint x="260" y="680" as="targetPoint" />
          </mxGeometry>
        </mxCell>
        <mxCell id="BC059xfo4H1Qpgpk-Aju-25" value="" style="endArrow=classic;html=1;rounded=0;entryX=1;entryY=0.5;entryDx=0;entryDy=0;" edge="1" parent="1" target="BC059xfo4H1Qpgpk-Aju-4">
          <mxGeometry width="50" height="50" relative="1" as="geometry">
            <mxPoint x="380" y="790" as="sourcePoint" />
            <mxPoint x="260" y="680" as="targetPoint" />
          </mxGeometry>
        </mxCell>
        <mxCell id="BC059xfo4H1Qpgpk-Aju-26" value="" style="endArrow=classic;html=1;rounded=0;entryX=1;entryY=0.5;entryDx=0;entryDy=0;" edge="1" parent="1" target="BC059xfo4H1Qpgpk-Aju-5">
          <mxGeometry width="50" height="50" relative="1" as="geometry">
            <mxPoint x="380" y="880" as="sourcePoint" />
            <mxPoint x="260" y="680" as="targetPoint" />
          </mxGeometry>
        </mxCell>
        <mxCell id="BC059xfo4H1Qpgpk-Aju-27" value="Advice" style="rounded=1;whiteSpace=wrap;html=1;" vertex="1" parent="1">
          <mxGeometry x="650" y="680" width="120" height="60" as="geometry" />
        </mxCell>
        <mxCell id="BC059xfo4H1Qpgpk-Aju-29" value="Response" style="shape=note;whiteSpace=wrap;html=1;backgroundOutline=1;darkOpacity=0.05;" vertex="1" parent="1">
          <mxGeometry x="470" y="860" width="80" height="100" as="geometry" />
        </mxCell>
        <mxCell id="BC059xfo4H1Qpgpk-Aju-31" value="" style="endArrow=none;html=1;rounded=0;exitX=1;exitY=0.5;exitDx=0;exitDy=0;" edge="1" parent="1" source="BC059xfo4H1Qpgpk-Aju-2">
          <mxGeometry width="50" height="50" relative="1" as="geometry">
            <mxPoint x="450" y="570" as="sourcePoint" />
            <mxPoint x="510" y="570" as="targetPoint" />
          </mxGeometry>
        </mxCell>
        <mxCell id="BC059xfo4H1Qpgpk-Aju-35" style="edgeStyle=orthogonalEdgeStyle;rounded=0;orthogonalLoop=1;jettySize=auto;html=1;exitX=1;exitY=0.5;exitDx=0;exitDy=0;entryX=0;entryY=0.5;entryDx=0;entryDy=0;" edge="1" parent="1" source="BC059xfo4H1Qpgpk-Aju-32" target="BC059xfo4H1Qpgpk-Aju-34">
          <mxGeometry relative="1" as="geometry" />
        </mxCell>
        <mxCell id="BC059xfo4H1Qpgpk-Aju-32" value="Error?" style="rhombus;whiteSpace=wrap;html=1;" vertex="1" parent="1">
          <mxGeometry x="470" y="670" width="80" height="80" as="geometry" />
        </mxCell>
        <mxCell id="BC059xfo4H1Qpgpk-Aju-33" value="" style="endArrow=classic;html=1;rounded=0;entryX=0.5;entryY=0;entryDx=0;entryDy=0;" edge="1" parent="1" target="BC059xfo4H1Qpgpk-Aju-32">
          <mxGeometry width="50" height="50" relative="1" as="geometry">
            <mxPoint x="510" y="570" as="sourcePoint" />
            <mxPoint x="260" y="680" as="targetPoint" />
          </mxGeometry>
        </mxCell>
        <mxCell id="BC059xfo4H1Qpgpk-Aju-36" style="edgeStyle=orthogonalEdgeStyle;rounded=0;orthogonalLoop=1;jettySize=auto;html=1;exitX=1;exitY=0.5;exitDx=0;exitDy=0;entryX=0;entryY=0.5;entryDx=0;entryDy=0;" edge="1" parent="1" source="BC059xfo4H1Qpgpk-Aju-34" target="BC059xfo4H1Qpgpk-Aju-27">
          <mxGeometry relative="1" as="geometry" />
        </mxCell>
        <mxCell id="BC059xfo4H1Qpgpk-Aju-34" value="Yes" style="text;html=1;align=center;verticalAlign=middle;whiteSpace=wrap;rounded=0;" vertex="1" parent="1">
          <mxGeometry x="570" y="695" width="60" height="30" as="geometry" />
        </mxCell>
        <mxCell id="BC059xfo4H1Qpgpk-Aju-37" style="edgeStyle=orthogonalEdgeStyle;rounded=0;orthogonalLoop=1;jettySize=auto;html=1;exitX=0.5;exitY=1;exitDx=0;exitDy=0;entryX=0;entryY=0;entryDx=80;entryDy=65;entryPerimeter=0;" edge="1" parent="1" source="BC059xfo4H1Qpgpk-Aju-27" target="BC059xfo4H1Qpgpk-Aju-29">
          <mxGeometry relative="1" as="geometry" />
        </mxCell>
        <mxCell id="BC059xfo4H1Qpgpk-Aju-39" style="edgeStyle=orthogonalEdgeStyle;rounded=0;orthogonalLoop=1;jettySize=auto;html=1;exitX=0.5;exitY=1;exitDx=0;exitDy=0;entryX=0.467;entryY=0.033;entryDx=0;entryDy=0;entryPerimeter=0;" edge="1" parent="1" source="BC059xfo4H1Qpgpk-Aju-32">
          <mxGeometry relative="1" as="geometry">
            <mxPoint x="509.0100000000002" y="775.99" as="targetPoint" />
          </mxGeometry>
        </mxCell>
        <mxCell id="BC059xfo4H1Qpgpk-Aju-41" value="No" style="text;html=1;align=center;verticalAlign=middle;whiteSpace=wrap;rounded=0;" vertex="1" parent="1">
          <mxGeometry x="480" y="775" width="60" height="30" as="geometry" />
        </mxCell>
        <mxCell id="BC059xfo4H1Qpgpk-Aju-42" style="edgeStyle=orthogonalEdgeStyle;rounded=0;orthogonalLoop=1;jettySize=auto;html=1;exitX=0.5;exitY=1;exitDx=0;exitDy=0;entryX=0.5;entryY=0;entryDx=0;entryDy=0;entryPerimeter=0;" edge="1" parent="1" source="BC059xfo4H1Qpgpk-Aju-41" target="BC059xfo4H1Qpgpk-Aju-29">
          <mxGeometry relative="1" as="geometry" />
        </mxCell>
      </root>
    </mxGraphModel>
  </diagram>
</mxfile>
